<!DOCTYPE svg PUBLIC "-//W3C//DTD SVG 1.1//EN" "http://www.w3.org/Graphics/SVG/1.1/DTD/svg11.dtd">
<!-- Uploaded to: SVG Repo, www.svgrepo.com, Transformed by: SVG Repo Mixer Tools -->
<svg width="800px" height="800px" viewBox="-4.8 -4.8 57.60 57.60" xmlns="http://www.w3.org/2000/svg" fill="#f6d32d" transform="rotate(0)">
<g id="SVGRepo_bgCarrier" stroke-width="0">
<path transform="translate(-4.8, -4.8), scale(1.7999999999999998)" d="M16,30.494839139282703C18.934886109349506,30.603845271499434,20.60747913525337,27.01974464757767,22.225597119745085,24.568799319754547C23.398848102602237,22.79168909518653,22.783719193809016,20.38615596757315,23.87930610726289,18.560141746897944C25.547337024561127,15.780035359983973,29.827778306973013,14.641342589215569,30.11930515147005,11.412359659164643C30.41107239190067,8.180714077695377,28.250812277146903,4.51446354418922,25.261311698073886,3.2528980189229237C22.26452726276773,1.9882587153877591,19.154981902445808,4.662753814244494,16,5.454030450433493C13.800820230989139,6.005589737873083,11.678333375827357,6.290972873384234,9.59363003937438,7.182388210345271C6.85356553779839,8.35403478386839,2.7448845056480873,8.564754726530605,1.985755306083366,11.446495871118987C1.2142333263324687,14.375281424720779,4.820289206607114,16.551303473938443,6.453740437677849,19.10176775715019C7.596811979961688,20.88655513634832,8.7403543128087,22.49394084747754,10.10156850844767,24.11849446411044C12.007771726263849,26.393470247834845,13.034027960025599,30.38467842834042,16,30.494839139282703" fill="#7ed0ec" strokewidth="0"/>
</g>
<g id="SVGRepo_tracerCarrier" stroke-linecap="round" stroke-linejoin="round"/>
<g id="SVGRepo_iconCarrier">
<defs>
<style>.a{fill:none;stroke:#2ec27e;stroke-linecap:round;stroke-linejoin:round;}.b{fill:#2ec27e;}</style>
</defs>
<path class="a" d="M28.6794,24h-2.15"/>
<path class="a" d="M32.3471,24h-2.15"/>
<path class="a" d="M36.0147,24h-2.15"/>
<path class="a" d="M39.6824,24h-2.15"/>
<path class="a" d="M21.4706,24h-2.15"/>
<path class="a" d="M17.8029,24h-2.15"/>
<path class="a" d="M14.1353,24h-2.15"/>
<path class="a" d="M10.4676,24h-2.15"/>
<path class="a" d="M24,15.6529v2.15"/>
<path class="a" d="M24,19.3206v2.15"/>
<path class="a" d="M24,26.5294v2.15"/>
<path class="a" d="M24,30.1971v2.15"/>
<path class="a" d="M24,33.8647v2.15"/>
<path class="a" d="M24,37.5324v2.15"/>
<path class="a" d="M24,11.9853v2.15"/>
<path class="a" d="M24,8.3176v2.15"/>
<path class="a" d="M10.3412,20.7118c21.7529-22.1324,15.1764,12.9,27.5706,15.6823"/>
<circle class="a" cx="24" cy="24" r="21.5"/>
<circle class="b" cx="24" cy="24" r="0.75"/>
</g>
</svg>